<svg width="34" height="34" viewBox="0 0 34 34" fill="none" xmlns="http://www.w3.org/2000/svg">
<path d="M9.49989 15.125V24.5M9.49989 9.49997V9.51872M16.9999 24.5V15.125M24.4999 24.5V18.875C24.4999 17.8804 24.1049 16.9266 23.4016 16.2233C22.6983 15.5201 21.7445 15.125 20.7499 15.125C19.7554 15.125 18.8016 15.5201 18.0983 16.2233C17.395 16.9266 16.9999 17.8804 16.9999 18.875M5.75 2H28.25C30.3211 2 32 3.67893 32 5.75V28.25C32 30.3211 30.3211 32 28.25 32H5.75C3.67893 32 2 30.3211 2 28.25V5.75C2 3.67893 3.67893 2 5.75 2Z" stroke="#018762" stroke-width="3" stroke-linecap="round" stroke-linejoin="round"/>
</svg>
