<svg width="725" height="206" viewBox="0 0 725 206" fill="none" xmlns="http://www.w3.org/2000/svg">
<path d="M198.236 77.3799L167.686 77.3783C159.286 77.3779 154.366 71.3077 154.367 64.3477C154.367 53.8777 163.247 51.6081 167.687 51.6083L221.157 51.611C240.617 51.612 256.398 35.8328 256.399 16.3728C256.399 16.3728 256.29 2.68275 242.71 2.68207L156.86 2.6778C141.21 2.67702 94.4393 13.4647 94.4367 65.7847C94.4354 91.5547 107.365 110.175 128.014 119.926C138.244 124.757 149.624 127.167 162.174 127.168L191.874 127.17C201.914 127.17 207.213 134.24 207.213 141.93C207.212 151.99 195.422 156.41 191.872 156.41L76.1422 156.404C66.8522 156.403 62.5326 148.093 62.5329 142.503L62.5381 37.9031C62.5391 18.4431 46.7599 2.66232 27.2999 2.66135L13.6899 2.66068C6.12987 2.6603 -0.000437199 8.78999 -0.00081322 16.35L-0.00705885 141.92C-0.00980987 197.23 53.3498 205.323 68.0298 205.323L201.11 205.33C255 205.333 267.122 160.143 267.123 138.453C267.126 84.3233 215.846 77.3607 198.226 77.3599L198.236 77.3799Z" fill="#018762"/>
<path d="M567.273 138.318C556.753 138.318 551.503 147.277 551.502 153.347L551.501 173.057C551.501 178.147 550.351 182.107 548.081 184.837C543.22 190.677 534.701 189.297 531.401 185.986C528.391 182.976 528.661 177.166 528.661 172.836L528.663 143.086C528.663 138.776 523.933 138.306 523.883 138.306C513.363 138.306 508.113 147.265 508.112 153.335L508.111 178.015C508.111 184.435 511.12 205.695 533.95 205.697C547.66 205.697 550.64 199.067 551.56 197.557L551.56 199.397C551.56 202.037 553.7 204.178 556.33 204.178L559.98 204.178C566.63 204.178 572.04 198.768 572.04 192.118L572.043 143.078C572.043 138.768 567.313 138.298 567.263 138.298L567.273 138.318Z" fill="#018762"/>
<path d="M552.214 112.627C549.694 112.627 547.314 113.767 545.814 115.697L537.374 130.417C536.384 131.687 536.033 133.207 536.403 134.597C537.003 136.827 539.133 138.387 541.593 138.387C549.663 138.387 556.923 132.238 560.544 125.588L563.594 119.978C564.364 118.568 564.454 116.998 563.844 115.678C563.004 113.828 561.064 112.638 558.924 112.638L552.214 112.637L552.214 112.627Z" fill="#018762"/>
<path d="M388.532 151.079L375.002 151.079C373.073 151.079 368.173 149.848 368.173 144.128C368.173 142.748 369.083 137.058 375.003 137.059L397.803 137.06C411.063 137.06 410.564 123.27 410.564 123.27C410.564 120.72 408.484 118.64 405.934 118.64L372.734 118.639C351.084 118.637 346.763 137.447 346.763 144.727C346.762 155.237 351.992 163.288 360.282 167.268C364.362 169.228 368.962 170.228 373.932 170.229L386.862 170.229C388.512 170.229 394.531 171.43 394.531 178.02C394.531 179.44 393.371 185.69 386.861 185.689L362.981 185.688C349.721 185.687 350.23 199.477 350.23 199.477C350.23 202.027 352.31 204.108 354.86 204.108L389.73 204.109C411.73 204.11 415.821 184.601 415.821 176.221C415.822 153.921 395.392 151.09 388.532 151.089L388.532 151.079Z" fill="#018762"/>
<path d="M495.083 143.005C495.083 140.375 492.943 138.415 490.313 138.414C490.313 138.414 479.643 138.264 476.963 148.364C473.803 142.914 468.583 136.883 455.903 136.963C442.063 137.052 434.623 143.662 430.042 152.101C425.732 160.041 425.931 171.241 425.931 171.241C425.93 193.751 439.96 205.682 455.91 205.683C469.35 205.683 474.81 198.914 476.36 196.804C476.36 196.804 475.15 204.164 480.93 204.164L484.12 204.164C490.27 204.164 495.09 199.345 495.09 193.215L495.093 143.005L495.083 143.005ZM460.631 188.883C444.391 188.882 445.872 170.892 445.872 170.892C445.872 158.332 454.052 154.763 460.632 154.763C468.782 154.763 475.392 159.614 475.391 170.894C475.391 170.894 476.901 188.884 460.631 188.883Z" fill="#018762"/>
<path d="M709.863 141.305C701.343 136.175 687.183 135.004 675.643 141.494C666.803 146.463 660.122 156.133 660.121 171.133C660.121 171.133 658.76 192.293 675.83 201.804C686.45 207.724 701.98 205.765 708.12 202.765C718.87 197.506 720.02 192.216 719.891 189.826C719.561 183.996 711.951 181.485 711.951 181.485C705.661 178.185 706.091 188.785 693.961 188.785C682.951 188.784 680.061 181.424 679.451 177.234L718.161 177.236C722.081 177.236 724.841 173.996 724.841 170.516C724.842 159.286 720.733 147.846 709.863 141.295L709.863 141.305ZM680.032 162.864C680.032 160.664 684.252 154.764 693.062 154.764C701.242 154.765 705.712 158.815 705.712 162.865L680.032 162.864Z" fill="#018762"/>
<path d="M645.924 113.722L645.834 113.722C641.794 113.722 637.814 115.372 634.904 118.262C632.044 121.111 630.464 124.831 630.464 128.761L630.463 143.921C624.013 136.541 616.203 136.751 611.573 136.75C581.343 136.749 581.931 171.229 581.931 171.229C581.93 202.409 605.34 205.61 611.57 205.61C625.59 205.611 629.34 199.021 630.71 197.291L630.71 199.311C630.71 201.951 632.86 204.091 635.49 204.092L639.14 204.092C645.47 204.092 650.61 198.942 650.61 192.622L650.614 118.502C650.614 115.882 648.514 113.732 645.924 113.722ZM616.421 188.771C600.441 188.77 601.941 171.27 601.941 171.27C601.942 158.47 609.902 154.64 616.422 154.641C623.512 154.641 630.902 159.071 630.901 170.691C630.901 171.271 632.791 188.771 616.421 188.771Z" fill="#018762"/>
<path d="M532.676 89.7965C555.296 89.7976 561.916 73.8979 562.816 71.868C567.587 61.1882 552.277 59.6475 552.277 59.6475C549.267 59.0073 546.287 60.7172 545.347 63.6171C543.977 67.8671 540.696 71.9169 533.046 71.9165C520.106 71.9159 518.457 61.0358 518.457 55.2558C518.457 55.2558 517.948 38.7758 533.048 38.7765C542.818 38.777 545.028 46.0871 545.348 47.0771C546.288 49.9872 549.267 51.6873 552.277 51.0475C552.298 51.0475 567.618 49.5582 562.818 38.828C557.959 27.9378 547.719 20.9072 532.679 20.9065C496.989 20.9047 498.837 55.2548 498.837 55.2548C498.836 80.1848 516.256 89.7957 532.676 89.7965Z" fill="#018762"/>
<path d="M711.249 22.5754L707.649 22.5752C701.249 22.5749 696.039 27.7846 696.038 34.1846L696.036 83.4546C696.036 86.1246 698.216 88.3047 700.886 88.3049L704.536 88.305C711.016 88.3054 716.096 83.0056 716.096 76.2456L716.099 27.4256C716.099 24.7556 713.919 22.5755 711.249 22.5754Z" fill="#018762"/>
<path d="M707.07 0.0351684L704.65 0.0350481C699.332 0.0347835 695.02 4.34607 695.02 9.66457L695.02 9.67457C695.019 14.9931 699.331 19.3048 704.649 19.3051L707.069 19.3052C712.388 19.3054 716.699 14.9941 716.7 9.67565L716.7 9.66565C716.7 4.34715 712.389 0.035433 707.07 0.0351684Z" fill="#018762"/>
<path d="M593.676 76.0995L593.678 50.5795C594.058 45.0996 597.808 42.3797 608.088 42.3802C608.088 42.3802 620.108 43.4008 620.108 33.9308C620.059 28.1108 620.959 22.5609 615.169 22.5606L613.159 22.5605C606.879 22.5602 600.809 24.9599 596.349 29.3797C595.468 30.2496 594.579 31.2296 593.698 32.3295C593.698 31.8495 593.749 27.4795 593.739 26.4695C593.719 24.8195 592.199 22.7094 589.089 22.7093C588.999 22.7093 587.619 22.7592 587.169 22.7592C582.959 22.759 573.139 26.0985 573.138 37.6585L573.136 83.3285C573.136 86.0085 575.306 88.1786 577.986 88.1787L581.636 88.1789C588.296 88.1793 593.696 82.7795 593.696 76.1195L593.676 76.0995Z" fill="#018762"/>
<path d="M488.429 27.1043C488.429 24.4743 486.289 22.5142 483.659 22.514C483.659 22.514 472.989 22.3635 470.308 32.4634C467.149 27.0132 461.929 20.983 449.249 21.0623C435.409 21.1516 427.969 27.7613 423.388 36.201C419.078 44.1408 419.277 55.3408 419.277 55.3408C419.276 77.8508 433.306 89.7815 449.256 89.7823C462.696 89.783 468.156 83.0133 469.706 80.9034C469.706 80.9034 468.496 88.2633 474.276 88.2636L477.466 88.2637C483.616 88.264 488.436 83.4443 488.436 77.3143L488.439 27.1043L488.429 27.1043ZM453.976 72.9826C437.736 72.9818 439.217 54.9918 439.217 54.9918C439.218 42.4318 447.398 38.8622 453.978 38.8626C462.128 38.863 468.738 43.7133 468.737 54.9933C468.737 54.9933 470.246 72.9834 453.976 72.9826Z" fill="#018762"/>
<path d="M672.049 25.4534C663.529 20.323 649.369 19.1523 637.829 25.6417C628.988 30.6113 622.308 40.2809 622.307 55.2809C622.307 55.2809 620.946 76.4409 638.016 85.9517C648.635 91.8723 664.166 89.913 670.306 86.9133C681.056 81.6539 682.206 76.3639 682.076 73.9739C681.747 68.1439 674.137 65.6335 674.137 65.6335C667.847 62.3332 668.276 72.9332 656.146 72.9326C645.136 72.9321 642.247 65.5719 641.637 61.3819L680.347 61.3838C684.267 61.384 687.027 58.1442 687.027 54.6642C687.028 43.4342 682.918 31.994 672.049 25.4434L672.049 25.4534ZM642.218 47.0119C642.218 44.8119 646.438 38.9122 655.248 38.9126C663.428 38.913 667.898 42.9632 667.898 47.0132L642.218 47.0119Z" fill="#018762"/>
<path d="M362.486 87.658L396.756 87.6597C398.416 87.6598 401.386 87.35 402.616 86.76C411.736 82.3805 413.777 68.5806 405.977 68.5802L374.907 68.5786C372.747 68.5785 370.987 66.8185 370.987 64.6585L371.219 14.3885C371.22 7.62846 365.72 2.12819 358.96 2.12785L355.58 2.12769C352.87 2.12755 350.39 4.32743 350.39 7.03743L350.436 75.5974C350.436 82.2474 355.846 87.6577 362.496 87.658L362.486 87.658Z" fill="#018762"/>
</svg>
