<svg width="792" height="94" viewBox="0 0 792 94" fill="none" xmlns="http://www.w3.org/2000/svg">
<path d="M634.326 25.5211C623.792 25.5205 618.545 34.4099 618.544 40.4354L618.543 59.9886C618.543 65.0429 617.394 68.9673 615.125 71.6728C610.267 77.4701 601.742 76.0921 598.434 72.8116C595.416 69.8186 595.686 64.0606 595.686 59.7694L595.688 30.2563C595.688 25.9849 590.95 25.509 590.9 25.509C580.376 25.5085 575.129 34.3978 575.128 40.4233L575.127 64.902C575.127 71.2744 578.134 92.3638 600.981 92.365C614.694 92.3656 617.683 85.7853 618.602 84.2889L618.602 86.1124C618.602 88.7287 620.741 90.8595 623.379 90.8597L627.027 90.8599C633.683 90.8602 639.091 85.489 639.091 78.8986L639.093 30.2486C639.094 25.9772 634.356 25.5012 634.306 25.5012L634.326 25.5211Z" fill="#018762"/>
<path d="M619.266 0.0308012C616.747 0.0306759 614.359 1.16034 612.859 3.07297L604.413 17.6706C603.424 18.9291 603.074 20.4454 603.444 21.823C604.043 24.033 606.182 25.5791 608.631 25.5792C616.706 25.5796 623.972 19.4851 627.591 12.885L630.649 7.3155C631.419 5.91817 631.509 4.36225 630.899 3.04414C630.05 1.21067 628.121 0.0312416 625.982 0.0311353L619.266 0.0308012Z" fill="#018762"/>
<path d="M455.485 38.1776L441.943 38.177C440.004 38.1769 435.106 36.9576 435.107 31.279C435.107 29.9114 436.017 24.2625 441.943 24.2628L464.751 24.2639C478.013 24.2646 477.514 10.5783 477.514 10.5783C477.514 8.05117 475.436 5.9897 472.887 5.98957L439.675 5.98792C418.017 5.98684 413.689 24.6479 413.689 31.8726C413.688 42.2983 418.925 50.2863 427.21 54.2311C431.298 56.1737 435.895 57.165 440.872 57.1652L453.815 57.1659C455.464 57.1659 461.491 58.3555 461.49 64.8963C461.49 66.3036 460.331 72.5075 453.814 72.5071L429.928 72.5059C416.665 72.5053 417.164 86.1915 417.164 86.1915C417.164 88.7187 419.243 90.7802 421.791 90.7803L456.682 90.782C478.7 90.7831 482.788 71.4283 482.789 63.1135C482.79 40.9836 462.341 38.178 455.485 38.1776Z" fill="#018762"/>
<path d="M562.096 30.1654C562.096 27.559 559.958 25.6165 557.319 25.6163C557.319 25.6163 546.645 25.4671 543.956 35.4963C540.798 30.095 535.571 24.1089 522.888 24.1875C509.046 24.276 501.6 30.8363 497.012 39.2104C492.694 47.0889 492.893 58.1985 492.893 58.1985C492.892 80.5266 506.934 92.3603 522.885 92.3611C536.337 92.3617 541.795 85.6428 543.344 83.5517C543.344 83.5517 542.124 90.8556 547.921 90.8559L551.119 90.8561C557.276 90.8564 562.093 86.0798 562.094 79.9849L562.096 30.1555L562.096 30.1654ZM527.623 75.6821C511.372 75.6813 512.852 57.8328 512.852 57.8328C512.853 45.3655 521.039 41.8279 527.625 41.8282C535.78 41.8286 542.396 46.6454 542.396 57.8343C542.396 57.8343 543.904 75.6829 527.623 75.6821Z" fill="#018762"/>
<path d="M777.007 28.4815C768.482 23.397 754.32 22.2269 742.766 28.6681C733.921 33.603 727.244 43.186 727.243 58.0714C727.243 58.0714 725.883 79.0615 742.963 88.4971C753.597 94.3744 769.128 92.4328 775.275 89.4501C786.039 84.2377 787.189 78.9853 787.049 76.6167C786.719 70.8389 779.104 68.3411 779.104 68.3411C772.807 65.0704 773.237 75.5853 761.103 75.5847C750.08 75.5842 747.191 68.2801 746.582 64.1276L785.311 64.1295C789.238 64.1297 791.997 60.909 791.997 57.4602C791.998 46.3209 787.891 34.9634 777.007 28.4716L777.007 28.4815ZM747.162 49.8765C747.163 47.6962 751.38 41.8394 760.206 41.8398C768.391 41.8402 772.858 45.8641 772.858 49.8778L747.162 49.8765Z" fill="#018762"/>
<path d="M713.034 1.11569L712.944 1.11569C708.896 1.11549 704.918 2.7505 702.01 5.61446C699.141 8.43878 697.562 12.1353 697.562 16.0301L697.561 31.0641C691.115 23.74 683.299 23.9577 678.652 23.9574C648.409 23.9559 648.996 58.1666 648.996 58.1666C648.995 89.0969 672.422 92.2793 678.648 92.2796C692.681 92.2803 696.429 85.7397 697.798 84.0252L697.798 86.0271C697.798 88.6435 699.947 90.7743 702.585 90.7744L706.233 90.7746C712.56 90.7749 717.707 85.6713 717.707 79.3881L717.711 5.863C717.711 3.26648 715.602 1.13564 713.024 1.11569L713.034 1.11569ZM683.506 75.5809C667.515 75.5801 669.015 58.2171 669.015 58.2171C669.016 45.5219 676.982 41.7168 683.508 41.7171C690.604 41.7174 698 46.1081 697.999 57.6438C697.999 58.2186 699.887 75.5817 683.506 75.5809Z" fill="#018762"/>
<path d="M182.404 93.9893C205.041 93.9904 211.658 78.2134 212.568 76.2016C217.346 65.6077 202.015 64.0807 202.015 64.0807C199.006 63.4463 196.018 65.1408 195.078 68.0247C193.709 72.2365 190.43 76.26 182.775 76.2596C169.822 76.259 168.173 65.4665 168.174 59.7283C168.174 59.7283 167.665 43.3762 182.776 43.3769C192.551 43.3774 194.759 50.6319 195.079 51.6131C196.018 54.497 198.997 56.1919 202.015 55.5578C202.035 55.5578 217.357 54.072 212.57 43.4379C207.703 32.6353 197.459 25.6579 182.407 25.6572C146.697 25.6554 148.554 59.7373 148.554 59.7373C148.553 84.4637 165.983 94.0083 182.404 94.0091L182.404 93.9893Z" fill="#018762"/>
<path d="M361.088 27.3013L357.49 27.3011C351.084 27.3008 345.866 32.4638 345.866 38.8164L345.863 87.6944C345.863 90.3504 348.042 92.5109 350.721 92.5111L354.369 92.5113C360.855 92.5116 365.932 87.2593 365.933 80.55L365.935 32.1179C365.935 29.462 363.757 27.3014 361.078 27.3013L361.088 27.3013Z" fill="#018762"/>
<path d="M356.901 4.9333L354.473 4.93318C349.152 4.93292 344.838 9.21 344.838 14.4863L344.838 14.4962C344.837 19.7725 349.151 24.0501 354.472 24.0503L356.901 24.0504C362.222 24.0507 366.535 19.7736 366.536 14.4973L366.536 14.4874C366.536 9.21108 362.223 4.93357 356.901 4.9333Z" fill="#018762"/>
<path d="M243.441 80.3952L243.442 55.0742C243.822 49.6334 247.58 46.938 257.864 46.9385C257.864 46.9385 269.888 47.95 269.888 38.5549C269.838 32.7772 270.738 27.267 264.941 27.2667L262.933 27.2666C256.656 27.2663 250.569 29.6445 246.112 34.0247C245.232 34.8868 244.342 35.858 243.453 36.9481C243.453 36.4724 243.503 32.1317 243.493 31.1307C243.473 29.4955 241.954 27.3944 238.836 27.3943C238.746 27.3943 237.367 27.4437 236.917 27.4437C232.709 27.4435 222.875 30.763 222.874 42.2293L222.872 87.5396C222.872 90.1956 225.04 92.3562 227.729 92.3563L231.377 92.3565C238.043 92.3568 243.44 87.0055 243.441 80.3952Z" fill="#018762"/>
<path d="M138.132 31.7895C138.132 29.183 135.993 27.2405 133.355 27.2404C133.355 27.2404 122.68 27.0912 119.991 37.1204C116.834 31.719 111.607 25.7329 98.9237 25.8115C85.0814 25.9001 77.6352 32.4604 73.0474 40.8344C68.7294 48.713 68.9287 59.8225 68.9287 59.8225C68.9276 82.1506 82.9692 93.9843 98.9204 93.9851C112.373 93.9858 117.83 87.2668 119.379 85.1758C119.379 85.1758 118.16 92.4797 123.957 92.48L127.155 92.4801C133.311 92.4804 138.129 87.7039 138.129 81.609L138.132 31.7796L138.132 31.7895ZM103.659 77.3062C87.4076 77.3054 88.8877 59.4568 88.8877 59.4568C88.8883 46.9896 97.0739 43.4519 103.66 43.4523C111.816 43.4527 118.432 48.2695 118.431 59.4583C118.431 59.4583 119.94 77.307 103.659 77.3062Z" fill="#018762"/>
<path d="M321.86 30.1535C313.335 25.069 299.173 23.8989 287.619 30.3401C278.773 35.275 272.097 44.858 272.096 59.7434C272.096 59.7434 270.736 80.7336 287.816 90.1691C298.449 96.0465 313.981 94.1048 320.128 91.1221C330.892 85.9098 332.042 80.6573 331.902 78.2887C331.572 72.511 323.957 70.0132 323.957 70.0132C317.66 66.7424 318.089 77.2574 305.956 77.2568C294.932 77.2562 292.044 69.9521 291.435 65.7996L330.163 65.8016C334.091 65.8018 336.85 62.581 336.85 59.1322C336.85 47.9929 332.743 36.6354 321.86 30.1436L321.86 30.1535ZM292.015 51.5485C292.015 49.3682 296.233 43.5114 305.058 43.5119C313.244 43.5123 317.711 47.5361 317.711 51.5498L292.015 51.5485Z" fill="#018762"/>
<path d="M46.3996 91.8716C48.0687 91.8717 51.0271 91.5646 52.2564 90.9799C61.3816 86.6297 63.4211 72.9436 55.6155 72.9432L24.5327 72.9417C22.3739 72.9415 20.615 71.1972 20.6151 69.0566L20.8475 19.1776C20.8478 12.4683 15.3411 7.00741 8.57489 7.00707L5.19676 7.0069C2.48827 7.00677 -0.000457435 9.19684 -0.000591017 11.8826L0.0460008 79.9075C0.0456725 86.5078 5.46239 91.8695 12.1087 91.8699L46.3996 91.8716Z" fill="#018762"/>
</svg>
